<svg width="640" height="640" viewBox="0 0 640 640" fill="none" xmlns="http://www.w3.org/2000/svg">
  <rect width="640" height="640" rx="80" fill="#F4E7D7"/>
  <circle cx="320" cy="244" r="116" fill="#E8C9AC"/>
  <path d="M162 538C175 427 236 370 319 370C403 370 465 427 478 538" fill="#B67B5A"/>
  <path d="M216 250C216 196 255 154 320 154C385 154 424 196 424 250V282C424 338 381 382 320 382C259 382 216 338 216 282V250Z" fill="#F6D8BA"/>
  <path d="M233 231C251 162 305 138 355 146C403 154 432 192 432 253C407 228 381 222 353 219C330 217 300 221 272 237C253 249 241 263 232 282C228 265 226 248 233 231Z" fill="#6E4F42"/>
  <circle cx="285" cy="272" r="10" fill="#6E4F42"/>
  <circle cx="356" cy="272" r="10" fill="#6E4F42"/>
  <path d="M288 329C309 344 333 344 352 329" stroke="#9A6249" stroke-width="12" stroke-linecap="round"/>
  <path d="M223 156C244 121 285 96 335 96C416 96 471 157 471 241C471 276 461 306 445 332C441 293 424 245 392 209C356 168 310 146 223 156Z" fill="#8A5D47"/>
  <text x="320" y="590" text-anchor="middle" fill="#6A4A3C" font-size="34" font-family="Arial, sans-serif">Avatar Placeholder</text>
</svg>
